<?xml version="1.0" encoding="utf-8"?>
<!-- Generator: Adobe Illustrator 28.1.0, SVG Export Plug-In . SVG Version: 6.00 Build 0)  -->
<svg version="1.1" id="Layer_1" xmlns="http://www.w3.org/2000/svg" xmlns:xlink="http://www.w3.org/1999/xlink" x="0px" y="0px"
	 viewBox="0 0 130 114" style="enable-background:new 0 0 130 114;" xml:space="preserve">
<style type="text/css">
	.st0{fill:#EEA938;}
	.st1{fill:#153C5D;}
</style>
<g>
	<g>
		<g>
			<g>
				<g>
					<g>
						<rect x="59.11" y="34.97" class="st0" width="12.18" height="2.54"/>
					</g>
				</g>
				<g>
					<g>
						<rect x="59.11" y="39.79" class="st0" width="2.54" height="2.54"/>
					</g>
				</g>
				<g>
					<g>
						<rect x="64.2" y="39.79" class="st0" width="7.1" height="2.54"/>
					</g>
				</g>
				<g>
					<g>
						<polygon class="st0" points="59.11,59.07 71.3,59.07 71.3,66.44 68.76,66.44 68.76,61.61 61.66,61.61 61.66,63.89 
							66.48,63.89 66.48,66.44 59.11,66.44 						"/>
					</g>
				</g>
				<g>
					<g>
						<polygon class="st0" points="59.11,44.61 71.3,44.61 71.3,51.97 68.76,51.97 68.76,47.15 61.66,47.15 61.66,49.43 
							66.48,49.43 66.48,51.97 59.11,51.97 						"/>
					</g>
				</g>
				<g>
					<g>
						<rect x="59.11" y="54.25" class="st0" width="12.18" height="2.54"/>
					</g>
				</g>
			</g>
			<g>
				<g>
					<path class="st0" d="M108.18,65.52L108.18,65.52c0,0.47-0.38,0.85-0.85,0.85H73.21V33.38H57.28v32.99H22.67
						c-0.47,0-0.85-0.38-0.85-0.85v0c0-0.47,0.38-0.85,0.85-0.85h32.91V31.68h6.28V4.67l-3.92,3.92l-0.67,0.67l-1.7,1.7l-3.7,3.71
						v46.59h-14.6c-0.47,0-0.85-0.38-0.85-0.85v0c0-0.47,0.38-0.85,0.85-0.85h12.9V13.95l1.7-1.7l3.67-3.66l0.04-0.04l7.98-7.98
						v31.11h2.62V16.83l13.38,13.38v29.33h12.59c0.47,0,0.85,0.38,0.85,0.85v0c0,0.47-0.38,0.85-0.85,0.85H77.87V30.91l-9.98-9.98
						v10.76h7.03v32.99h32.42C107.8,64.67,108.18,65.06,108.18,65.52z"/>
				</g>
			</g>
		</g>
		<g>
			<g>
				<g>
					<g>
						<g>
							<path class="st1" d="M86.62,92.31h9.66c0.01-0.09,0.02-0.19,0.04-0.29c0.03-0.26,0.06-0.51,0.09-0.76
								c0.03-0.26,0.05-0.51,0.06-0.75c0.02-0.26,0.03-0.49,0.05-0.69c0.06-1.27,0.05-2.43-0.04-3.45
								c-0.09-0.98-0.31-1.83-0.66-2.52c-0.33-0.66-0.83-1.17-1.47-1.51c-0.66-0.36-1.54-0.54-2.63-0.54h-3.15
								c-0.02,0.45-0.04,0.85-0.06,1.21c-0.02,0.22-0.03,0.42-0.04,0.6c-0.01,0.2-0.02,0.38-0.04,0.54h3.29
								c0.59,0,1.07,0.15,1.43,0.44c0.35,0.28,0.6,0.69,0.74,1.21c0.13,0.46,0.2,1.02,0.2,1.65c0.01,0.61-0.01,1.28-0.04,2
								l-0.02,0.43h-7.3L86.62,92.31z"/>
						</g>
					</g>
					<g>
						<g>
							<polygon class="st1" points="100.15,76.12 99.62,92.31 102.32,92.31 102.84,75.59 							"/>
						</g>
					</g>
					<g>
						<g>
							<polygon class="st1" points="44.29,76.63 42.54,78.37 44.28,80.11 46.01,78.36 							"/>
						</g>
					</g>
					<g>
						<g>
							<path class="st1" d="M71.98,76.12l-0.45,13.76h-9.87c-0.6-0.05-1.03-0.25-1.28-0.59c-0.22-0.31-0.33-0.73-0.33-1.24l0.1-2.01
								c0-0.48,0.13-0.9,0.38-1.24c0.28-0.38,0.75-0.57,1.38-0.57h1.23c0.37,0,0.8,0.03,1.29,0.09c0.3,0.04,0.58,0.08,0.85,0.13
								l0.34-2.3c-0.89-0.18-1.71-0.28-2.45-0.28H61.1c-1.29,0-2.23,0.34-2.79,1.01c-0.58,0.69-0.87,1.72-0.87,3.06l-0.1,2.33
								c0,0.4,0.02,0.77,0.07,1.1l0.08,0.52H50.8l0.18-0.59c0.06-0.18,0.1-0.38,0.12-0.58c0.03-0.23,0.05-0.46,0.09-0.7l0.1-1.94
								c0.05-0.58,0-1.15-0.14-1.68c-0.13-0.52-0.39-0.99-0.76-1.4c-0.38-0.41-0.9-0.75-1.55-1c-0.66-0.25-1.52-0.38-2.55-0.38
								c-1.03,0-1.87,0.13-2.5,0.38c-0.63,0.25-1.13,0.58-1.5,1c-0.37,0.42-0.64,0.9-0.81,1.43c-0.17,0.56-0.29,1.14-0.33,1.72
								l-0.1,1.97c-0.05,0.43-0.03,0.84,0.04,1.25l0.1,0.54h-5.91l0.45-14.29l-2.7,0.52l-0.53,16.19h41.65l0.52-16.71L71.98,76.12z
								 M48.58,86.02l-0.1,1.62c-0.08,0.7-0.29,1.24-0.63,1.62c-0.37,0.41-0.95,0.62-1.73,0.62c-0.77,0-1.37-0.2-1.8-0.58
								c-0.46-0.41-0.65-1-0.56-1.73l0.1-1.61c0.08-0.7,0.31-1.25,0.68-1.63c0.39-0.4,0.98-0.6,1.76-0.6c0.77,0,1.37,0.2,1.77,0.59
								C48.49,84.72,48.66,85.3,48.58,86.02z"/>
						</g>
					</g>
					<g>
						<g>
							<polygon class="st1" points="126.63,76.12 126.11,92.31 128.81,92.31 129.33,75.59 							"/>
						</g>
					</g>
					<g>
						<g>
							<path class="st1" d="M118.66,94.54c-0.28,0.32-0.64,0.68-1.06,1.08l1.58,1.71c0.93-0.8,1.63-1.51,2.1-2.11
								c0.48-0.62,0.72-1.25,0.72-1.88l0.53-11.4l-2.7,0.51l-0.53,10.43C119.29,93.51,119.08,94.08,118.66,94.54z"/>
						</g>
					</g>
					<g>
						<g>
							
								<rect x="120.04" y="77.14" transform="matrix(0.7069 -0.7073 0.7073 0.7069 -19.8914 108.7416)" class="st1" width="2.46" height="2.46"/>
						</g>
					</g>
					<g>
						<g>
							<path class="st1" d="M105.43,92.31h9.66c0.01-0.09,0.02-0.19,0.04-0.29c0.03-0.26,0.06-0.51,0.09-0.76
								c0.03-0.26,0.05-0.51,0.06-0.75c0.02-0.25,0.03-0.48,0.05-0.69c0.06-1.27,0.05-2.43-0.04-3.45
								c-0.09-0.98-0.31-1.83-0.66-2.52c-0.33-0.66-0.83-1.17-1.47-1.51c-0.66-0.36-1.54-0.54-2.63-0.54h-3.15
								c-0.02,0.45-0.04,0.85-0.06,1.21c-0.02,0.22-0.03,0.42-0.04,0.6c-0.01,0.2-0.02,0.38-0.04,0.54h3.29
								c0.59,0,1.07,0.15,1.43,0.44c0.35,0.28,0.6,0.69,0.74,1.21c0.13,0.47,0.2,1.02,0.2,1.65c0.01,0.61-0.01,1.28-0.04,2
								l-0.02,0.43h-7.3L105.43,92.31z"/>
						</g>
					</g>
					<g>
						<g>
							<polygon class="st1" points="78.41,76.12 77.88,92.31 80.59,92.31 81.1,75.59 							"/>
						</g>
					</g>
					<g>
						<g>
							<polygon class="st1" points="46.93,78.36 48.68,80.11 50.42,78.37 48.68,76.63 							"/>
						</g>
					</g>
					<g>
						<g>
							<polygon class="st1" points="21.13,95.51 19.38,93.77 17.63,95.5 19.39,97.26 							"/>
						</g>
					</g>
					<g>
						<g>
							<polygon class="st1" points="14.99,93.77 13.25,95.51 14.99,97.25 16.72,95.5 							"/>
						</g>
					</g>
					<g>
						<g>
							<polygon class="st1" points="6.39,78.36 8.15,80.11 9.89,78.37 8.14,76.63 							"/>
						</g>
					</g>
					<g>
						<g>
							<path class="st1" d="M0.67,89.32c0,0.47,0.03,0.92,0.1,1.32c0.06,0.36,0.17,0.67,0.32,0.92c0.15,0.23,0.35,0.41,0.62,0.54
								c0.28,0.14,0.67,0.21,1.17,0.21h18.24l0.5-10.41l-2.7,0.52l-0.38,7.46h-7.72l0.07-0.52c0.16-1.2,0.25-2.29,0.25-3.25
								c0-0.92-0.14-1.71-0.43-2.34c-0.27-0.6-0.71-1.07-1.31-1.39c-0.63-0.34-1.52-0.51-2.66-0.51H6.09
								c-0.62,0-1.26,0.07-1.91,0.22c-0.62,0.14-1.19,0.38-1.69,0.74c-0.49,0.35-0.9,0.84-1.21,1.45c-0.32,0.62-0.48,1.44-0.48,2.45
								L0.67,89.32z M3.5,86.33c0-0.99,0.41-1.47,0.76-1.69c0.44-0.28,1-0.42,1.65-0.42h0.83c0.61,0,1.07,0.16,1.37,0.47
								c0.28,0.29,0.45,0.7,0.5,1.22c0.04,0.45,0.03,0.99-0.04,1.6c-0.07,0.58-0.13,1.23-0.2,1.95l-0.04,0.41H4.81
								c-0.47,0-0.83-0.12-1.07-0.36c-0.24-0.24-0.36-0.59-0.36-1.05L3.5,86.33z"/>
						</g>
					</g>
					<g>
						<g>
							<polygon class="st1" points="3.75,76.63 2.01,78.37 3.75,80.11 5.48,78.36 							"/>
						</g>
					</g>
					<g>
						<g>
							<path class="st1" d="M25.06,94.54L25.06,94.54c-0.29,0.32-0.64,0.68-1.06,1.08l1.58,1.71c0.93-0.8,1.63-1.51,2.1-2.11
								c0.48-0.62,0.72-1.25,0.72-1.88l0.53-11.4l-2.7,0.51l-0.53,10.43C25.69,93.51,25.48,94.08,25.06,94.54z"/>
						</g>
					</g>
				</g>
				<g>
					<g>
						<g>
							<g>
								<path class="st1" d="M77.92,101.67l-3.44,10.08h2.14l0.7-2.05h3.46l0.02,0.07l0.54,1.98h2.21l-2.68-10.08H77.92z
									 M77.8,108.01l0.04-0.13l1.57-4.66l0.84,4.79H77.8z"/>
							</g>
						</g>
					</g>
					<g>
						<g>
							<g>
								<path class="st1" d="M59.17,101.67l-3.44,10.08h2.14l0.7-2.05h3.46l0.02,0.07l0.54,1.98h2.21l-2.68-10.08H59.17z
									 M59.06,108.01l0.04-0.13l1.57-4.66l0.84,4.79H59.06z"/>
							</g>
						</g>
					</g>
					<g>
						<g>
							<polygon class="st1" points="72.86,111.75 72.93,109.89 68.8,109.89 68.8,109.79 69.06,101.67 67.05,101.67 66.72,111.75 
															"/>
						</g>
					</g>
					<g>
						<g>
							<g>
								<path class="st1" d="M92.81,108.78L92.81,108.78l0.14-4.25c0-0.37-0.07-0.75-0.19-1.11c-0.13-0.36-0.34-0.69-0.63-0.97
									c-0.29-0.29-0.69-0.52-1.17-0.7c-0.49-0.18-1.09-0.26-1.8-0.26c-0.71,0-1.32,0.09-1.8,0.26c-0.48,0.18-0.87,0.41-1.16,0.7
									c-0.29,0.29-0.51,0.61-0.63,0.97c-0.13,0.36-0.19,0.74-0.19,1.12l-0.14,4.25c0,0.37,0.07,0.75,0.19,1.11
									c0.13,0.36,0.34,0.69,0.63,0.97c0.29,0.29,0.68,0.52,1.16,0.7c0.48,0.18,1.08,0.26,1.8,0.26h0.25l0.02,0.08
									c0.04,0.18,0.08,0.36,0.12,0.55l0.19,0.98h2.31l-0.48-2.14l0.06-0.04c0.47-0.29,0.82-0.65,1.02-1.09
									C92.7,109.72,92.81,109.25,92.81,108.78z M90.92,104.74l-0.14,3.84c0,0.43-0.14,0.76-0.43,1c-0.28,0.23-0.73,0.35-1.33,0.35
									c-0.61,0-1.05-0.12-1.33-0.35c-0.28-0.23-0.43-0.57-0.43-1l0.14-3.85c0-0.42,0.14-0.77,0.43-1.02
									c0.28-0.25,0.73-0.37,1.34-0.37s1.06,0.12,1.34,0.37C90.77,103.96,90.92,104.31,90.92,104.74L90.92,104.74z"/>
							</g>
						</g>
					</g>
					<g>
						<g>
							<g>
								<path class="st1" d="M126.51,109.7l0.02,0.07l0.54,1.98h2.21l-2.68-10.08h-2.94l-3.44,10.08h2.14l0.7-2.05H126.51z
									 M123.58,107.88l1.57-4.66l0.84,4.79h-2.46L123.58,107.88z"/>
							</g>
						</g>
					</g>
					<g>
						<g>
							<polygon class="st1" points="116.2,101.67 115.86,111.75 117.89,111.75 118.21,101.67 							"/>
						</g>
					</g>
					<g>
						<g>
							<g>
								<path class="st1" d="M111.57,107.93c0.27-0.07,0.53-0.18,0.75-0.34c0.22-0.15,0.42-0.37,0.58-0.63
									c0.16-0.27,0.29-0.61,0.38-1.01c0.09-0.4,0.14-0.89,0.14-1.46c0-0.93-0.25-1.65-0.75-2.11c-0.51-0.47-1.38-0.71-2.59-0.71
									h-4.1l-0.36,10.08h2.12l0.09-3.46h1.68l0.03,0.05l1.7,3.4h2.28l-2.06-3.79L111.57,107.93z M111.04,106.12
									c-0.27,0.24-0.67,0.37-1.18,0.37h-2.03l0-0.1l0.13-2.85h2.16c0.5,0,0.84,0.09,1.04,0.27c0.19,0.18,0.29,0.49,0.29,0.9
									C111.45,105.41,111.31,105.87,111.04,106.12z"/>
							</g>
						</g>
					</g>
					<g>
						<g>
							<g>
								<path class="st1" d="M98.08,101.67l-3.44,10.08h2.14l0.7-2.05h3.46l0.02,0.07l0.54,1.98h2.21l-2.68-10.08H98.08z
									 M97.96,108.01l0.04-0.13l1.57-4.66l0.84,4.79H97.96z"/>
							</g>
						</g>
					</g>
					<g>
						<g>
							<g>
								<path class="st1" d="M28.65,110.14c0.12-0.31,0.18-0.63,0.18-0.96v0l0.2-4.94c0-0.33-0.06-0.66-0.18-0.96
									c-0.11-0.3-0.31-0.58-0.57-0.81c-0.27-0.24-0.62-0.43-1.05-0.57c-0.43-0.15-0.96-0.22-1.57-0.22H22l-0.35,10.08h3.8
									c0.61,0,1.14-0.07,1.57-0.22c0.43-0.14,0.78-0.34,1.05-0.57C28.34,110.72,28.54,110.45,28.65,110.14z M26.96,104.88
									l-0.12,3.67c0,0.42-0.1,0.75-0.31,0.99c-0.21,0.24-0.61,0.36-1.22,0.36h-1.53l0-0.1l0.19-6.26h1.47
									c0.61,0,1.01,0.12,1.22,0.36C26.85,104.12,26.96,104.45,26.96,104.88L26.96,104.88z"/>
							</g>
						</g>
					</g>
					<g>
						<g>
							<g>
								<path class="st1" d="M34.17,101.67l-3.44,10.08h2.14l0.7-2.05h3.46l0.02,0.07l0.54,1.98h2.21l-2.68-10.08H34.17z
									 M34.05,108.01l0.04-0.13l1.57-4.66l0.84,4.79H34.05z"/>
							</g>
						</g>
					</g>
					<g>
						<g>
							<polygon class="st1" points="11.22,110.19 11.17,111.75 18.75,111.75 18.79,109.89 13.81,109.89 19.25,103.25 19.31,101.69 
								11.93,101.69 11.86,103.53 16.67,103.56 							"/>
						</g>
					</g>
					<g>
						<g>
							<g>
								<path class="st1" d="M4.16,101.67l-3.44,10.08h2.14l0.7-2.05h3.46l0.02,0.07l0.54,1.98h2.21L7.1,101.67H4.16z M4.05,108.01
									l0.04-0.13l1.57-4.66l0.84,4.79H4.05z"/>
							</g>
						</g>
					</g>
					<g>
						<g>
							<g>
								<path class="st1" d="M48.71,110.14c0.12-0.31,0.18-0.63,0.18-0.96v0l0.2-4.94c0-0.33-0.06-0.66-0.18-0.96
									c-0.11-0.3-0.31-0.58-0.57-0.81c-0.27-0.24-0.62-0.43-1.05-0.57c-0.43-0.15-0.96-0.22-1.57-0.22h-3.66l-0.35,10.08h3.8
									c0.61,0,1.14-0.07,1.57-0.22c0.43-0.14,0.78-0.34,1.05-0.57C48.4,110.72,48.59,110.45,48.71,110.14z M47.01,104.88
									l-0.12,3.67c0,0.42-0.1,0.75-0.31,0.99c-0.21,0.24-0.61,0.36-1.22,0.36h-1.53l0-0.1l0.19-6.26h1.47
									c0.61,0,1.01,0.12,1.22,0.36C46.91,104.12,47.01,104.45,47.01,104.88L47.01,104.88z"/>
							</g>
						</g>
					</g>
				</g>
			</g>
		</g>
	</g>
</g>
</svg>
